<svg width="100pt" height="100pt" version="1.1" viewBox="0 0 100 100" xmlns="http://www.w3.org/2000/svg">
 <g fill-rule="evenodd">
  <path d="m55.441 1.5547 33.68 19.172c3.625 2.0742 5.6992 5.6992 5.6992 9.8438v38.859c0 4.1445-2.0742 7.7734-5.6992 9.8438l-33.68 19.172c-3.625 2.0742-7.7734 2.0742-11.398 0l-33.16-19.172c-3.625-2.0742-5.6992-5.6992-5.6992-9.8438v-38.859c0-4.1445 2.0742-7.7734 5.6992-9.8438l33.16-19.172c3.625-2.0742 7.7734-2.0742 11.398 0zm-2.0742 8.8086 29.016 16.582c2.5898 1.5547 3.625 3.625 3.625 6.2188v33.68c0 2.5898-1.0352 4.6641-3.625 6.2188l-29.016 16.582c-2.0742 1.0352-4.6641 1.0352-6.7344 0l-29.016-16.582c-2.5898-1.5547-3.625-3.625-3.625-6.2188v-33.68c0-2.5898 1.0352-4.6641 3.625-6.2188l29.016-16.582c2.0742-1.5547 4.6641-1.5547 6.7344 0z"/>
  <path d="m49.742 16.582 29.016 16.578v33.68l-29.016 16.578-29.016-16.578v-33.68z"/>
 </g>
</svg>
